<svg width="532" height="196" viewBox="0 0 532 196" fill="none" xmlns="http://www.w3.org/2000/svg">
<g filter="url(#filter0_d_26_2606)">
<path d="M526.044 68.0474C526.044 67.1895 526.044 66.2974 525.941 65.3709V65.3023C525.907 64.7532 525.838 64.2042 525.77 63.6552V63.415C525.667 62.9003 525.598 62.3856 525.53 61.8709L525.461 61.4934C525.392 61.0474 525.29 60.6013 525.221 60.1552C525.187 59.9836 525.152 59.8464 525.118 59.6748V59.5375C525.049 59.263 524.981 58.9885 524.912 58.714C524.809 58.3022 524.707 57.8905 524.569 57.4444L524.466 57.1012C522.58 50.513 518.979 44.4737 514.006 39.6698C508.862 34.6599 502.448 31.1256 495.486 29.5128C495.108 29.4099 494.731 29.3413 494.354 29.2726C494.148 29.2383 493.942 29.204 493.702 29.1354C493.256 29.0668 492.811 28.9638 492.33 28.8952L491.885 28.8266C491.37 28.7579 490.856 28.6893 490.341 28.6207H490.067C489.518 28.552 488.935 28.5177 488.386 28.4834H488.249C486.98 28.4148 485.848 28.4148 484.579 28.4834H484.442C483.893 28.4834 483.31 28.552 482.762 28.6207H482.453C481.939 28.6893 481.424 28.7579 480.91 28.8266L480.464 28.8952C480.018 28.9638 479.572 29.0324 479.126 29.1354C478.92 29.1697 478.715 29.204 478.509 29.2726C478.132 29.3413 477.754 29.4442 477.377 29.5128C470.415 31.1256 464.001 34.6599 458.857 39.6698C453.918 44.4737 450.283 50.513 448.396 57.1356L448.294 57.4787C448.191 57.8905 448.053 58.3022 447.985 58.714C447.916 58.9885 447.848 59.263 447.779 59.5375V59.6405C447.779 59.6405 447.676 59.9836 447.642 60.1209C447.539 60.5669 447.47 61.013 447.402 61.4934L447.333 61.8709C447.265 62.3856 447.196 62.9003 447.127 63.415V63.6552C447.025 64.2042 446.99 64.7532 446.956 65.268V65.4395C446.887 66.3317 446.853 67.2239 446.853 68.0817C446.853 68.8023 446.853 69.5229 446.922 70.4151L446.819 107.714H463.144V68.0817C463.144 64.2042 464.104 60.3954 465.956 56.9983C470.038 49.4835 477.857 44.8168 486.397 44.8168C494.937 44.8168 502.757 49.4835 506.838 56.9983C508.69 60.3954 509.65 64.2042 509.65 68.0817V107.714H525.976L525.907 70.4151C525.941 69.5229 525.976 68.8023 525.976 68.0817" fill="white"/>
<path d="M405.114 43.0326C415.403 43.0326 423.188 48.5228 425.383 59.2288H383.404C386.045 49.6895 394.276 43.0326 405.114 43.0326ZM442.669 68.3563C442.737 40.8708 424.937 28.2776 405.285 28.2776C382.821 28.2776 365.776 44.9199 365.776 68.3563C365.776 91.7927 382.066 108.126 406.314 108.126C422.742 108.126 434.815 100.165 442.429 89.3221L430.391 79.9201C424.663 88.1554 416.432 92.6505 406.76 92.6505C394.585 92.6505 385.771 85.5132 383.335 74.8759L442.737 74.8073V68.3563H442.669Z" fill="white"/>
<path d="M298.657 148.617C298.657 148.376 298.623 148.171 298.588 147.965C298.691 141.479 300.715 136.195 304.762 131.734C309.357 126.656 314.536 122.195 320.195 118.489C321.396 117.7 322.116 117.734 323.351 118.523C329.215 122.332 334.566 126.999 339.264 132.317C345.678 139.661 346.707 150.332 341.802 158.911C337.001 167.318 327.089 171.95 317.726 170.131C307.917 168.278 300.406 160.524 298.966 150.881C298.828 150.058 298.76 149.234 298.691 148.582M344.58 64.8906C345.643 72.0622 343.654 78.5132 338.715 84.0721C333.914 89.425 328.564 93.9545 322.802 97.5574C322.013 98.0722 321.533 98.0722 320.744 97.5574C314.296 93.5427 308.603 88.5672 303.767 82.8024C300.646 79.0622 298.725 74.224 298.657 69.8318C298.657 56.2778 307.711 46.1552 320.675 45.2287C332.131 44.4395 342.865 53.2238 344.58 64.8563M359.259 133.21C356.001 124.665 350.068 118.523 344.134 113.102C342.625 111.729 341.116 110.494 339.47 109.156C338.921 108.709 338.338 108.229 337.789 107.749C337.858 107.68 337.927 107.611 337.995 107.543C339.333 106.307 340.739 105.072 342.077 103.871C345.095 101.195 348.181 98.4153 351.028 95.4643C357.887 88.327 361.523 79.4397 361.763 68.9739C362.037 57.4444 357.27 46.3954 348.661 38.6404C339.847 30.7139 327.981 27.0766 316.114 28.655C304.11 30.2335 293.615 37.2678 287.305 47.9052C280.994 58.5768 279.897 71.2043 284.287 82.5279C287.545 90.9692 293.684 97.2829 299.206 102.327C300.749 103.734 302.292 105.004 303.939 106.376C304.522 106.857 305.105 107.337 305.688 107.817C305.619 107.886 305.551 107.955 305.448 108.023C304.041 109.327 302.601 110.631 301.161 111.866C298.005 114.68 294.713 117.597 291.798 120.788C284.801 128.337 281.406 137.499 281.68 148.068C281.989 159.734 286.927 170.234 295.604 177.646C302.944 183.926 312.033 187.22 321.67 187.22C323.522 187.22 325.408 187.117 327.295 186.842C339.23 185.264 349.725 178.298 356.035 167.695C362.38 157.058 363.512 144.465 359.191 133.141" fill="white"/>
<path d="M107.247 0.517822H91.2995V108.058H107.247V0.517822Z" fill="#73AAFF"/>
<path d="M45.3763 44.8171C32.5493 44.9544 22.1917 55.5574 22.3632 68.3908C22.5347 81.1556 32.9266 91.4154 45.6507 91.4154H45.925C52.1327 91.3468 57.9632 88.8419 62.3189 84.3811C66.6746 79.9203 69.041 74.0526 68.9381 67.8418C68.7667 54.974 58.2376 44.6799 45.3763 44.8171ZM6.17515 107.818L5.21484 0.517822H21.5744L21.6773 36.4788C28.4337 31.2974 36.4934 28.518 45.2048 28.4151C45.3763 28.4151 45.5135 28.4151 45.685 28.4151C56.0769 28.4151 65.8857 32.4298 73.3624 39.7043C80.942 47.1162 85.1948 57.0329 85.332 67.6016C85.4692 78.1703 81.4564 88.1899 74.0483 95.7733C66.6403 103.357 56.7285 107.612 46.1651 107.749C37.488 107.852 29.3254 105.278 22.4661 100.268L22.569 107.783H6.17515V107.818Z" fill="#73AAFF"/>
<path d="M115.856 68.1163C115.856 68.9742 115.856 69.8663 115.959 70.7928V70.8615C115.993 71.4105 116.062 71.9595 116.096 72.5085V72.7487C116.199 73.2634 116.268 73.7781 116.336 74.2928L116.405 74.6703C116.473 75.1164 116.576 75.5625 116.645 76.0085C116.679 76.1801 116.714 76.3174 116.748 76.4889V76.6262C116.816 76.9007 116.885 77.1752 116.954 77.4497C117.056 77.8615 117.159 78.2733 117.297 78.7193L117.399 79.0625C119.286 85.6508 122.887 91.69 127.86 96.494C133.004 101.504 139.418 105.038 146.38 106.651C146.757 106.754 147.135 106.822 147.512 106.891C147.718 106.925 147.924 106.96 148.164 107.028C148.609 107.097 149.055 107.2 149.535 107.269L149.981 107.337C150.496 107.406 150.976 107.474 151.525 107.543H151.799C152.348 107.612 152.931 107.646 153.48 107.68H153.617C154.886 107.749 156.018 107.749 157.287 107.68H157.424C157.972 107.646 158.555 107.612 159.104 107.543H159.413C159.927 107.474 160.442 107.406 160.956 107.337L161.402 107.269C161.848 107.2 162.294 107.131 162.774 107.028C162.98 106.994 163.186 106.96 163.391 106.891C163.769 106.822 164.146 106.72 164.523 106.651C171.485 105.038 177.899 101.504 183.043 96.494C187.982 91.69 191.618 85.6508 193.504 79.0282L193.607 78.685C193.71 78.2733 193.847 77.8615 193.915 77.4497C193.984 77.1752 194.053 76.9007 194.121 76.6262V76.5233C194.121 76.5233 194.224 76.1801 194.258 76.0429C194.361 75.5968 194.43 75.1507 194.498 74.6703L194.567 74.2928C194.636 73.7781 194.704 73.2634 194.773 72.7487V72.5085C194.876 71.9595 194.91 71.4105 194.944 70.8958V70.7242C195.013 69.832 195.047 68.9399 195.047 68.082C195.047 67.3614 195.047 66.6408 194.979 65.7487L195.047 28.4494H178.722V68.082C178.722 71.9595 177.762 75.7683 175.91 79.1654C171.828 86.6802 164.009 91.3469 155.469 91.3469C146.929 91.3469 139.109 86.6802 135.028 79.1654C133.176 75.8027 132.216 71.9595 132.216 68.082V28.4494H115.89L115.959 65.7487C115.925 66.6408 115.89 67.3614 115.89 68.082" fill="#73AAFF"/>
<path d="M240.079 43.0329C250.368 43.0329 258.153 48.5231 260.348 59.2291H218.369C221.01 49.6898 229.241 43.0329 240.079 43.0329ZM277.634 68.3566C277.702 40.8711 259.902 28.2779 240.25 28.2779C217.786 28.2779 200.74 44.9202 200.74 68.3566C200.74 91.793 217.031 108.126 241.279 108.126C257.707 108.126 269.78 100.166 277.394 89.3224L265.355 79.9204C259.628 88.1557 251.397 92.6508 241.725 92.6508C229.55 92.6508 220.735 85.5135 218.3 74.8762L277.702 74.8076V68.3566H277.634Z" fill="#73AAFF"/>
<path d="M520.857 153.396C524.605 153.396 526.784 151.692 526.784 148.804C526.784 146.977 525.895 145.62 523.768 144.176L522.827 143.533C521.624 142.732 521.153 142.245 521.153 141.654C521.153 140.836 521.955 140.349 523.506 140.349C523.925 140.349 524.605 140.384 525.476 140.506V137.618C524.587 137.461 523.733 137.409 523.036 137.409C519.619 137.409 517.614 139.027 517.614 141.706C517.614 143.411 518.433 144.646 520.351 145.968L521.327 146.647C522.565 147.499 523.036 148.056 523.036 148.821C523.036 149.795 522.304 150.265 520.682 150.265C520.002 150.265 518.991 150.213 517.754 150.021V153.17C518.904 153.292 520.055 153.379 520.857 153.379M507.363 153.17H511.024V130.45H507.363V153.188V153.17ZM487.734 145.394C487.734 142.576 489.686 140.645 492.301 140.645C494.777 140.645 496.764 142.384 496.764 145.394C496.764 148.404 494.794 150.108 492.301 150.108C489.669 150.108 487.734 148.195 487.734 145.394ZM491.831 153.466C493.87 153.466 495.753 152.701 496.886 151.291L496.921 153.17H500.164V137.6H496.921L496.886 139.479C495.77 138.07 493.87 137.305 491.831 137.305C487.577 137.305 484.073 140.61 484.073 145.411C484.073 150.213 487.594 153.483 491.831 153.483M476.28 153.431C476.995 153.431 477.849 153.379 478.756 153.222V149.9C477.936 149.987 477.222 150.039 476.681 150.039C473.613 150.039 471.783 148.16 471.783 145.411C471.783 142.663 473.613 140.749 476.681 140.749C477.222 140.749 477.919 140.801 478.756 140.923V137.6C477.832 137.479 476.978 137.392 476.28 137.392C471.521 137.392 468.139 140.662 468.139 145.394C468.139 150.126 471.539 153.396 476.28 153.396M458.098 134.991H461.759V130.45H458.098V135.008V134.991ZM458.098 153.17H461.759V137.6H458.098V153.188V153.17ZM429.682 143.898V153.17H433.343V143.811C433.343 141.845 434.249 140.662 435.905 140.662C437.562 140.662 438.555 141.845 438.555 143.933V153.188H442.216V143.933C442.216 141.845 443.192 140.662 444.866 140.662C446.54 140.662 447.429 141.845 447.429 143.811V153.17H451.09V143.898C451.09 139.723 448.823 137.235 445.093 137.235C442.844 137.235 441.222 138.122 440.333 139.497C439.444 138.122 437.823 137.235 435.609 137.235C431.896 137.235 429.647 139.705 429.647 143.898M411.429 143.567C411.952 141.619 413.609 140.262 415.805 140.262C417.88 140.262 419.431 141.375 419.884 143.567H411.429ZM416.032 153.518C419.344 153.518 421.75 151.9 423.284 149.691L420.861 147.777C419.71 149.447 418.054 150.369 416.119 150.369C413.469 150.369 411.604 148.665 411.307 146.194H423.319C423.667 140.071 419.954 137.27 415.823 137.27C411.307 137.27 407.89 140.662 407.89 145.429C407.89 150.195 411.168 153.536 416.032 153.536M388.679 153.188H392.34V144.089C392.34 141.845 393.351 140.68 395.199 140.68C397.047 140.68 398.006 141.863 398.006 144.089V153.188H401.667V143.846C401.667 139.671 399.662 137.252 396.21 137.252C394.537 137.252 393.177 137.844 392.288 138.87C392.323 137.809 392.34 136.661 392.34 135.478V130.45H388.679V153.188ZM379.701 153.431C380.416 153.431 381.27 153.379 382.177 153.222V149.9C381.357 149.987 380.643 150.039 380.12 150.039C377.051 150.039 375.221 148.16 375.221 145.411C375.221 142.663 377.051 140.749 380.12 140.749C380.643 140.749 381.357 140.801 382.177 140.923V137.6C381.253 137.479 380.399 137.392 379.701 137.392C375.012 137.409 371.612 140.68 371.612 145.411C371.612 150.143 375.012 153.414 379.754 153.414" fill="white"/>
</g>
<defs>
<filter id="filter0_d_26_2606" x="-4" y="0.314453" width="540" height="195.371" filterUnits="userSpaceOnUse" color-interpolation-filters="sRGB">
<feFlood flood-opacity="0" result="BackgroundImageFix"/>
<feColorMatrix in="SourceAlpha" type="matrix" values="0 0 0 0 0 0 0 0 0 0 0 0 0 0 0 0 0 0 127 0" result="hardAlpha"/>
<feOffset dy="4"/>
<feGaussianBlur stdDeviation="2"/>
<feComposite in2="hardAlpha" operator="out"/>
<feColorMatrix type="matrix" values="0 0 0 0 0 0 0 0 0 0 0 0 0 0 0 0 0 0 0.15 0"/>
<feBlend mode="normal" in2="BackgroundImageFix" result="effect1_dropShadow_26_2606"/>
<feBlend mode="normal" in="SourceGraphic" in2="effect1_dropShadow_26_2606" result="shape"/>
</filter>
</defs>
</svg>
